M48
METRIC,TZ
T1C0.635
T2C1.016
%
G90
G05
T1
X146000Y-135000
X148000Y-101000
X148000Y-137000
X150000Y-134000
X151000Y-112000
X151000Y-118000
X152000Y-137000
X153000Y-116000
X163000Y-101000
X166000Y-112000
X167000Y-140000
X182000Y-120000
X182000Y-123000
X201000Y-118000
X206000Y-118000
T2
X139000Y-117730
X139000Y-120270
X151460Y-121000
X154000Y-121000
X156540Y-121000
X168000Y-133730
X168000Y-136270
X170330Y-113700
X170330Y-128000
X172870Y-113700
X172870Y-128000
X175410Y-113700
X175410Y-128000
X177950Y-113700
X177950Y-128000
X180490Y-113700
X180490Y-128000
X183030Y-113700
X183030Y-128000
X185570Y-113700
X185570Y-128000
X188110Y-113700
X188110Y-128000
X190650Y-113700
X190650Y-128000
X193190Y-113700
X193190Y-128000
X195730Y-113700
X195730Y-128000
X198270Y-113700
X198270Y-128000
X200810Y-113700
X200810Y-128000
X203350Y-113700
X203350Y-128000
X205890Y-113700
X205890Y-128000
X208430Y-113700
X208430Y-128000
X210970Y-113700
X210970Y-128000
X213510Y-113700
X213510Y-128000
X216050Y-113700
X216050Y-128000
X218590Y-113700
X218590Y-128000
X221130Y-113700
X221130Y-128000
X223670Y-113700
X223670Y-128000
T0
M30
