%FSLAX46Y46*%
G04 Gerber Fmt 4.6, Leading zero omitted, Abs format (unit mm)*
G04 Created by KiCad (PCBNEW (2014-09-02 BZR 5112)-product) date Fri 05 Sep 2014 18:15:05 BST*
%MOMM*%
G01*
G04 APERTURE LIST*
%ADD10C,0.100000*%
%ADD11R,1.803400X1.600200*%
%ADD12R,1.600200X1.803400*%
%ADD13R,1.501140X2.700020*%
%ADD14R,2.400300X1.000760*%
%ADD15R,2.032000X2.032000*%
%ADD16O,2.032000X2.032000*%
%ADD17R,1.727200X2.032000*%
%ADD18O,1.727200X2.032000*%
%ADD19R,1.000760X1.399540*%
%ADD20R,1.399540X1.000760*%
%ADD21R,0.406400X1.270000*%
%ADD22R,0.701040X1.600200*%
%ADD23R,0.701040X2.100580*%
%ADD24R,1.998980X2.750820*%
%ADD25R,1.198880X2.400300*%
%ADD26R,0.300000X2.000000*%
%ADD27R,2.000000X3.000000*%
G04 APERTURE END LIST*
D10*
D11*
X146000000Y-130603000D03*
X146000000Y-133397000D03*
D12*
X154603000Y-135000000D03*
X157397000Y-135000000D03*
X157603000Y-140000000D03*
X160397000Y-140000000D03*
D11*
X165000000Y-136603000D03*
X165000000Y-139397000D03*
D12*
X161603000Y-112000000D03*
X164397000Y-112000000D03*
X146603000Y-112000000D03*
X149397000Y-112000000D03*
D13*
X141599700Y-140000000D03*
X146400300Y-140000000D03*
D14*
X141000000Y-129698760D03*
X141000000Y-134301240D03*
D15*
X139000000Y-117730000D03*
D16*
X139000000Y-120270000D03*
D17*
X156540000Y-121000000D03*
D18*
X154000000Y-121000000D03*
X151460000Y-121000000D03*
D15*
X168000000Y-136270000D03*
D16*
X168000000Y-133730000D03*
D17*
X223670000Y-113700000D03*
D18*
X221130000Y-113700000D03*
X218590000Y-113700000D03*
X216050000Y-113700000D03*
X213510000Y-113700000D03*
X210970000Y-113700000D03*
X208430000Y-113700000D03*
X205890000Y-113700000D03*
X203350000Y-113700000D03*
X200810000Y-113700000D03*
X198270000Y-113700000D03*
X195730000Y-113700000D03*
X193190000Y-113700000D03*
X190650000Y-113700000D03*
X188110000Y-113700000D03*
X185570000Y-113700000D03*
X183030000Y-113700000D03*
X180490000Y-113700000D03*
X177950000Y-113700000D03*
X175410000Y-113700000D03*
X172870000Y-113700000D03*
X170330000Y-113700000D03*
D17*
X170330000Y-128000000D03*
D18*
X172870000Y-128000000D03*
X175410000Y-128000000D03*
X177950000Y-128000000D03*
X180490000Y-128000000D03*
X183030000Y-128000000D03*
X185570000Y-128000000D03*
X188110000Y-128000000D03*
X190650000Y-128000000D03*
X193190000Y-128000000D03*
X195730000Y-128000000D03*
X198270000Y-128000000D03*
X200810000Y-128000000D03*
X203350000Y-128000000D03*
X205890000Y-128000000D03*
X208430000Y-128000000D03*
X210970000Y-128000000D03*
X213510000Y-128000000D03*
X216050000Y-128000000D03*
X218590000Y-128000000D03*
X221130000Y-128000000D03*
X223670000Y-128000000D03*
D19*
X150300740Y-140000000D03*
X153699260Y-140000000D03*
X157300740Y-133000000D03*
X160699260Y-133000000D03*
D20*
X165000000Y-133699260D03*
X165000000Y-130300740D03*
X156000000Y-103699260D03*
X156000000Y-100300740D03*
D19*
X158300740Y-101000000D03*
X161699260Y-101000000D03*
D20*
X141000000Y-103699260D03*
X141000000Y-100300740D03*
D19*
X143300740Y-101000000D03*
X146699260Y-101000000D03*
D21*
X152977900Y-129777500D03*
X152330200Y-129777500D03*
X151669800Y-129777500D03*
X151022100Y-129777500D03*
X151022100Y-134222500D03*
X151669800Y-134222500D03*
X152330200Y-134222500D03*
X152977900Y-134222500D03*
D22*
X161501140Y-105100080D03*
D23*
X160000000Y-105349000D03*
D22*
X158498860Y-105100080D03*
D24*
X160000000Y-107749300D03*
D22*
X146501140Y-105100080D03*
D23*
X145000000Y-105349000D03*
D22*
X143498860Y-105100080D03*
D24*
X145000000Y-107749300D03*
D25*
X205199140Y-121000000D03*
X208800860Y-121000000D03*
D26*
X203296000Y-101600000D03*
X202788000Y-101600000D03*
X202280000Y-101600000D03*
X201772000Y-101600000D03*
X201264000Y-101600000D03*
X200756000Y-101600000D03*
X200248000Y-101600000D03*
X199740000Y-101600000D03*
X199232000Y-101600000D03*
X198724000Y-101600000D03*
X198216000Y-101600000D03*
X197708000Y-101600000D03*
X197200000Y-101600000D03*
X196692000Y-101600000D03*
X196184000Y-101600000D03*
X195676000Y-101600000D03*
X195168000Y-101600000D03*
X194660000Y-101600000D03*
X194152000Y-101600000D03*
X193644000Y-101600000D03*
X193136000Y-101600000D03*
X192628000Y-101600000D03*
D27*
X191104000Y-98552000D03*
X204820000Y-98552000D03*
D26*
X190804000Y-137500000D03*
X191312000Y-137500000D03*
X191820000Y-137500000D03*
X192328000Y-137500000D03*
X192836000Y-137500000D03*
X193344000Y-137500000D03*
X193852000Y-137500000D03*
X194360000Y-137500000D03*
X194868000Y-137500000D03*
X195376000Y-137500000D03*
X195884000Y-137500000D03*
X196392000Y-137500000D03*
X196900000Y-137500000D03*
X197408000Y-137500000D03*
X197916000Y-137500000D03*
X198424000Y-137500000D03*
X198932000Y-137500000D03*
X199440000Y-137500000D03*
X199948000Y-137500000D03*
X200456000Y-137500000D03*
X200964000Y-137500000D03*
X201472000Y-137500000D03*
D27*
X202996000Y-140548000D03*
X189280000Y-140548000D03*
M02*
