%FSLAX46Y46*%
G04 Gerber Fmt 4.6, Leading zero omitted, Abs format (unit mm)*
G04 Created by KiCad (PCBNEW (2014-09-02 BZR 5112)-product) date Fri 05 Sep 2014 18:15:05 BST*
%MOMM*%
G01*
G04 APERTURE LIST*
%ADD10C,0.100000*%
%ADD11R,2.032000X2.032000*%
%ADD12O,2.032000X2.032000*%
%ADD13R,1.727200X2.032000*%
%ADD14O,1.727200X2.032000*%
%ADD15C,0.889000*%
%ADD16C,0.254000*%
%ADD17C,0.300000*%
G04 APERTURE END LIST*
D10*
D11*
X139000000Y-117730000D03*
D12*
X139000000Y-120270000D03*
D13*
X156540000Y-121000000D03*
D14*
X154000000Y-121000000D03*
X151460000Y-121000000D03*
D11*
X168000000Y-136270000D03*
D12*
X168000000Y-133730000D03*
D13*
X223670000Y-113700000D03*
D14*
X221130000Y-113700000D03*
X218590000Y-113700000D03*
X216050000Y-113700000D03*
X213510000Y-113700000D03*
X210970000Y-113700000D03*
X208430000Y-113700000D03*
X205890000Y-113700000D03*
X203350000Y-113700000D03*
X200810000Y-113700000D03*
X198270000Y-113700000D03*
X195730000Y-113700000D03*
X193190000Y-113700000D03*
X190650000Y-113700000D03*
X188110000Y-113700000D03*
X185570000Y-113700000D03*
X183030000Y-113700000D03*
X180490000Y-113700000D03*
X177950000Y-113700000D03*
X175410000Y-113700000D03*
X172870000Y-113700000D03*
X170330000Y-113700000D03*
D13*
X170330000Y-128000000D03*
D14*
X172870000Y-128000000D03*
X175410000Y-128000000D03*
X177950000Y-128000000D03*
X180490000Y-128000000D03*
X183030000Y-128000000D03*
X185570000Y-128000000D03*
X188110000Y-128000000D03*
X190650000Y-128000000D03*
X193190000Y-128000000D03*
X195730000Y-128000000D03*
X198270000Y-128000000D03*
X200810000Y-128000000D03*
X203350000Y-128000000D03*
X205890000Y-128000000D03*
X208430000Y-128000000D03*
X210970000Y-128000000D03*
X213510000Y-128000000D03*
X216050000Y-128000000D03*
X218590000Y-128000000D03*
X221130000Y-128000000D03*
X223670000Y-128000000D03*
D15*
X153000000Y-116000000D03*
X151000000Y-118000000D03*
X152000000Y-137000000D03*
X146000000Y-135000000D03*
X167000000Y-140000000D03*
X166000000Y-112000000D03*
X151000000Y-112000000D03*
X163000000Y-101000000D03*
X148000000Y-101000000D03*
X206000000Y-118000000D03*
X201000000Y-118000000D03*
X182000000Y-120000000D03*
X182000000Y-123000000D03*
X148000000Y-137000000D03*
X150000000Y-134000000D03*
D16*
X151000000Y-118000000D02*
X153000000Y-116000000D01*
D17*
X206000000Y-118000000D02*
X201000000Y-118000000D01*
X182000000Y-123000000D02*
X182000000Y-120000000D01*
X148000000Y-137000000D02*
X150000000Y-135000000D01*
X150000000Y-135000000D02*
X150000000Y-134000000D01*
D16*
G36*
X224873000Y-140873000D02*
X174046411Y-140873000D01*
X174046411Y-135201990D01*
X172900490Y-134238000D01*
X168508000Y-134238000D01*
X168508000Y-134619000D01*
X167492000Y-134619000D01*
X167492000Y-134238000D01*
X167492000Y-133222000D01*
X167492000Y-128835040D01*
X166528012Y-127683597D01*
X164765396Y-128413688D01*
X162977151Y-130056197D01*
X161953589Y-132258010D01*
X163099510Y-133222000D01*
X167492000Y-133222000D01*
X167492000Y-134238000D01*
X163099510Y-134238000D01*
X161953589Y-135201990D01*
X162977151Y-137403803D01*
X164765396Y-139046312D01*
X166528012Y-139776403D01*
X167492000Y-138624960D01*
X167492000Y-137921000D01*
X168508000Y-137921000D01*
X168508000Y-138624960D01*
X169471988Y-139776403D01*
X171234604Y-139046312D01*
X173022849Y-137403803D01*
X174046411Y-135201990D01*
X174046411Y-140873000D01*
X158038600Y-140873000D01*
X158038600Y-122142310D01*
X158038600Y-121889691D01*
X158038600Y-119857691D01*
X157941927Y-119624302D01*
X157763299Y-119445673D01*
X157530600Y-119349285D01*
X157530600Y-118586998D01*
X156965000Y-118586998D01*
X156437541Y-117380301D01*
X154731770Y-115739411D01*
X153917697Y-115394172D01*
X153915689Y-115389311D01*
X153612286Y-115085378D01*
X153215668Y-114920687D01*
X152786216Y-114920313D01*
X152389311Y-115084311D01*
X152085378Y-115387714D01*
X151920687Y-115784332D01*
X151920497Y-116001872D01*
X151028200Y-116894170D01*
X151028200Y-116098339D01*
X150086270Y-114934474D01*
X148188230Y-115739411D01*
X146482459Y-117380301D01*
X145534474Y-119549056D01*
X146706040Y-120492000D01*
X151028200Y-120492000D01*
X151028200Y-119079525D01*
X151213784Y-119079687D01*
X151610689Y-118915689D01*
X151891800Y-118635068D01*
X151891800Y-120492000D01*
X152323600Y-120492000D01*
X152323600Y-121508000D01*
X151891800Y-121508000D01*
X151891800Y-125901661D01*
X152833730Y-127065526D01*
X154731770Y-126260589D01*
X156437541Y-124619699D01*
X156965000Y-123413002D01*
X157530600Y-123413002D01*
X157530600Y-122650713D01*
X157763298Y-122554327D01*
X157941927Y-122375699D01*
X158038600Y-122142310D01*
X158038600Y-140873000D01*
X151079687Y-140873000D01*
X151079687Y-133786216D01*
X151028200Y-133661608D01*
X151028200Y-125901661D01*
X151028200Y-121508000D01*
X146706040Y-121508000D01*
X145534474Y-122450944D01*
X146482459Y-124619699D01*
X148188230Y-126260589D01*
X150086270Y-127065526D01*
X151028200Y-125901661D01*
X151028200Y-133661608D01*
X150915689Y-133389311D01*
X150612286Y-133085378D01*
X150215668Y-132920687D01*
X149786216Y-132920313D01*
X149389311Y-133084311D01*
X149085378Y-133387714D01*
X148920687Y-133784332D01*
X148920313Y-134213784D01*
X149084311Y-134610689D01*
X149181646Y-134708195D01*
X147969369Y-135920472D01*
X147786216Y-135920313D01*
X147389311Y-136084311D01*
X147085378Y-136387714D01*
X146920687Y-136784332D01*
X146920313Y-137213784D01*
X147084311Y-137610689D01*
X147387714Y-137914622D01*
X147784332Y-138079313D01*
X148213784Y-138079687D01*
X148610689Y-137915689D01*
X148914622Y-137612286D01*
X149079313Y-137215668D01*
X149079474Y-137030683D01*
X150555079Y-135555079D01*
X150725245Y-135300407D01*
X150725245Y-135300406D01*
X150785000Y-135000000D01*
X150785000Y-134741681D01*
X150914622Y-134612286D01*
X151079313Y-134215668D01*
X151079687Y-133786216D01*
X151079687Y-140873000D01*
X145046411Y-140873000D01*
X145046411Y-121741990D01*
X143900490Y-120778000D01*
X139508000Y-120778000D01*
X139508000Y-125164960D01*
X140471988Y-126316403D01*
X142234604Y-125586312D01*
X144022849Y-123943803D01*
X145046411Y-121741990D01*
X145046411Y-140873000D01*
X138127000Y-140873000D01*
X138127000Y-125600937D01*
X138492000Y-125164960D01*
X138492000Y-120778000D01*
X138127000Y-120778000D01*
X138127000Y-119762000D01*
X138492000Y-119762000D01*
X138492000Y-119381000D01*
X139508000Y-119381000D01*
X139508000Y-119762000D01*
X143900490Y-119762000D01*
X145046411Y-118798010D01*
X144022849Y-116596197D01*
X142234604Y-114953688D01*
X140471988Y-114223597D01*
X139508000Y-115375040D01*
X139508000Y-116079000D01*
X138492000Y-116079000D01*
X138492000Y-115375040D01*
X138127000Y-114939062D01*
X138127000Y-98127000D01*
X224873000Y-98127000D01*
X224873000Y-112137264D01*
X224659910Y-112049000D01*
X224407291Y-112049000D01*
X222680091Y-112049000D01*
X222446702Y-112145673D01*
X222268073Y-112324301D01*
X222204499Y-112477779D01*
X222189670Y-112455585D01*
X221703489Y-112130729D01*
X221130000Y-112016655D01*
X220556511Y-112130729D01*
X220070330Y-112455585D01*
X219860000Y-112770365D01*
X219649670Y-112455585D01*
X219163489Y-112130729D01*
X218590000Y-112016655D01*
X218016511Y-112130729D01*
X217530330Y-112455585D01*
X217320000Y-112770365D01*
X217109670Y-112455585D01*
X216623489Y-112130729D01*
X216050000Y-112016655D01*
X215476511Y-112130729D01*
X214990330Y-112455585D01*
X214780000Y-112770365D01*
X214569670Y-112455585D01*
X214083489Y-112130729D01*
X213510000Y-112016655D01*
X212936511Y-112130729D01*
X212450330Y-112455585D01*
X212240000Y-112770365D01*
X212029670Y-112455585D01*
X211543489Y-112130729D01*
X210970000Y-112016655D01*
X210396511Y-112130729D01*
X209910330Y-112455585D01*
X209700000Y-112770365D01*
X209489670Y-112455585D01*
X209003489Y-112130729D01*
X208430000Y-112016655D01*
X207856511Y-112130729D01*
X207370330Y-112455585D01*
X207160000Y-112770365D01*
X206949670Y-112455585D01*
X206463489Y-112130729D01*
X205890000Y-112016655D01*
X205316511Y-112130729D01*
X204830330Y-112455585D01*
X204620000Y-112770365D01*
X204409670Y-112455585D01*
X203923489Y-112130729D01*
X203350000Y-112016655D01*
X202776511Y-112130729D01*
X202290330Y-112455585D01*
X202080000Y-112770365D01*
X201869670Y-112455585D01*
X201383489Y-112130729D01*
X200810000Y-112016655D01*
X200236511Y-112130729D01*
X199750330Y-112455585D01*
X199540000Y-112770365D01*
X199329670Y-112455585D01*
X198843489Y-112130729D01*
X198270000Y-112016655D01*
X197696511Y-112130729D01*
X197210330Y-112455585D01*
X197000000Y-112770365D01*
X196789670Y-112455585D01*
X196303489Y-112130729D01*
X195730000Y-112016655D01*
X195156511Y-112130729D01*
X194670330Y-112455585D01*
X194460000Y-112770365D01*
X194249670Y-112455585D01*
X193763489Y-112130729D01*
X193190000Y-112016655D01*
X192616511Y-112130729D01*
X192130330Y-112455585D01*
X191920000Y-112770365D01*
X191709670Y-112455585D01*
X191223489Y-112130729D01*
X190650000Y-112016655D01*
X190076511Y-112130729D01*
X189590330Y-112455585D01*
X189380000Y-112770365D01*
X189169670Y-112455585D01*
X188683489Y-112130729D01*
X188110000Y-112016655D01*
X187536511Y-112130729D01*
X187050330Y-112455585D01*
X186840000Y-112770365D01*
X186629670Y-112455585D01*
X186143489Y-112130729D01*
X185570000Y-112016655D01*
X184996511Y-112130729D01*
X184510330Y-112455585D01*
X184300000Y-112770365D01*
X184089670Y-112455585D01*
X183603489Y-112130729D01*
X183030000Y-112016655D01*
X182456511Y-112130729D01*
X181970330Y-112455585D01*
X181760000Y-112770365D01*
X181549670Y-112455585D01*
X181063489Y-112130729D01*
X180490000Y-112016655D01*
X179916511Y-112130729D01*
X179430330Y-112455585D01*
X179220000Y-112770365D01*
X179009670Y-112455585D01*
X178523489Y-112130729D01*
X177950000Y-112016655D01*
X177376511Y-112130729D01*
X176890330Y-112455585D01*
X176680000Y-112770365D01*
X176469670Y-112455585D01*
X175983489Y-112130729D01*
X175410000Y-112016655D01*
X174836511Y-112130729D01*
X174350330Y-112455585D01*
X174140000Y-112770365D01*
X173929670Y-112455585D01*
X173443489Y-112130729D01*
X172870000Y-112016655D01*
X172296511Y-112130729D01*
X171810330Y-112455585D01*
X171600000Y-112770365D01*
X171389670Y-112455585D01*
X170903489Y-112130729D01*
X170330000Y-112016655D01*
X169756511Y-112130729D01*
X169270330Y-112455585D01*
X168945474Y-112941766D01*
X168831400Y-113515255D01*
X168831400Y-113884745D01*
X168945474Y-114458234D01*
X169270330Y-114944415D01*
X169756511Y-115269271D01*
X170330000Y-115383345D01*
X170903489Y-115269271D01*
X171389670Y-114944415D01*
X171600000Y-114629634D01*
X171810330Y-114944415D01*
X172296511Y-115269271D01*
X172870000Y-115383345D01*
X173443489Y-115269271D01*
X173929670Y-114944415D01*
X174140000Y-114629634D01*
X174350330Y-114944415D01*
X174836511Y-115269271D01*
X175410000Y-115383345D01*
X175983489Y-115269271D01*
X176469670Y-114944415D01*
X176680000Y-114629634D01*
X176890330Y-114944415D01*
X177376511Y-115269271D01*
X177950000Y-115383345D01*
X178523489Y-115269271D01*
X179009670Y-114944415D01*
X179220000Y-114629634D01*
X179430330Y-114944415D01*
X179916511Y-115269271D01*
X180490000Y-115383345D01*
X181063489Y-115269271D01*
X181549670Y-114944415D01*
X181760000Y-114629634D01*
X181970330Y-114944415D01*
X182456511Y-115269271D01*
X183030000Y-115383345D01*
X183603489Y-115269271D01*
X184089670Y-114944415D01*
X184300000Y-114629634D01*
X184510330Y-114944415D01*
X184996511Y-115269271D01*
X185570000Y-115383345D01*
X186143489Y-115269271D01*
X186629670Y-114944415D01*
X186840000Y-114629634D01*
X187050330Y-114944415D01*
X187536511Y-115269271D01*
X188110000Y-115383345D01*
X188683489Y-115269271D01*
X189169670Y-114944415D01*
X189380000Y-114629634D01*
X189590330Y-114944415D01*
X190076511Y-115269271D01*
X190650000Y-115383345D01*
X191223489Y-115269271D01*
X191709670Y-114944415D01*
X191920000Y-114629634D01*
X192130330Y-114944415D01*
X192616511Y-115269271D01*
X193190000Y-115383345D01*
X193763489Y-115269271D01*
X194249670Y-114944415D01*
X194460000Y-114629634D01*
X194670330Y-114944415D01*
X195156511Y-115269271D01*
X195730000Y-115383345D01*
X196303489Y-115269271D01*
X196789670Y-114944415D01*
X197000000Y-114629634D01*
X197210330Y-114944415D01*
X197696511Y-115269271D01*
X198270000Y-115383345D01*
X198843489Y-115269271D01*
X199329670Y-114944415D01*
X199540000Y-114629634D01*
X199750330Y-114944415D01*
X200236511Y-115269271D01*
X200810000Y-115383345D01*
X201383489Y-115269271D01*
X201869670Y-114944415D01*
X202080000Y-114629634D01*
X202290330Y-114944415D01*
X202776511Y-115269271D01*
X203350000Y-115383345D01*
X203923489Y-115269271D01*
X204409670Y-114944415D01*
X204620000Y-114629634D01*
X204830330Y-114944415D01*
X205316511Y-115269271D01*
X205890000Y-115383345D01*
X206463489Y-115269271D01*
X206949670Y-114944415D01*
X207160000Y-114629634D01*
X207370330Y-114944415D01*
X207856511Y-115269271D01*
X208430000Y-115383345D01*
X209003489Y-115269271D01*
X209489670Y-114944415D01*
X209700000Y-114629634D01*
X209910330Y-114944415D01*
X210396511Y-115269271D01*
X210970000Y-115383345D01*
X211543489Y-115269271D01*
X212029670Y-114944415D01*
X212240000Y-114629634D01*
X212450330Y-114944415D01*
X212936511Y-115269271D01*
X213510000Y-115383345D01*
X214083489Y-115269271D01*
X214569670Y-114944415D01*
X214780000Y-114629634D01*
X214990330Y-114944415D01*
X215476511Y-115269271D01*
X216050000Y-115383345D01*
X216623489Y-115269271D01*
X217109670Y-114944415D01*
X217320000Y-114629634D01*
X217530330Y-114944415D01*
X218016511Y-115269271D01*
X218590000Y-115383345D01*
X219163489Y-115269271D01*
X219649670Y-114944415D01*
X219860000Y-114629634D01*
X220070330Y-114944415D01*
X220556511Y-115269271D01*
X221130000Y-115383345D01*
X221703489Y-115269271D01*
X222189670Y-114944415D01*
X222204500Y-114922219D01*
X222268073Y-115075698D01*
X222446701Y-115254327D01*
X222680090Y-115351000D01*
X222932709Y-115351000D01*
X224659909Y-115351000D01*
X224873000Y-115262734D01*
X224873000Y-126970093D01*
X224729670Y-126755585D01*
X224243489Y-126430729D01*
X223670000Y-126316655D01*
X223096511Y-126430729D01*
X222610330Y-126755585D01*
X222400000Y-127070365D01*
X222189670Y-126755585D01*
X221703489Y-126430729D01*
X221130000Y-126316655D01*
X220556511Y-126430729D01*
X220070330Y-126755585D01*
X219860000Y-127070365D01*
X219649670Y-126755585D01*
X219163489Y-126430729D01*
X218590000Y-126316655D01*
X218016511Y-126430729D01*
X217530330Y-126755585D01*
X217320000Y-127070365D01*
X217109670Y-126755585D01*
X216623489Y-126430729D01*
X216050000Y-126316655D01*
X215476511Y-126430729D01*
X214990330Y-126755585D01*
X214780000Y-127070365D01*
X214569670Y-126755585D01*
X214083489Y-126430729D01*
X213510000Y-126316655D01*
X212936511Y-126430729D01*
X212450330Y-126755585D01*
X212240000Y-127070365D01*
X212029670Y-126755585D01*
X211543489Y-126430729D01*
X210970000Y-126316655D01*
X210396511Y-126430729D01*
X209910330Y-126755585D01*
X209700000Y-127070365D01*
X209489670Y-126755585D01*
X209003489Y-126430729D01*
X208430000Y-126316655D01*
X207856511Y-126430729D01*
X207370330Y-126755585D01*
X207160000Y-127070365D01*
X207079687Y-126950168D01*
X207079687Y-117786216D01*
X206915689Y-117389311D01*
X206612286Y-117085378D01*
X206215668Y-116920687D01*
X205786216Y-116920313D01*
X205389311Y-117084311D01*
X205258393Y-117215000D01*
X201741681Y-117215000D01*
X201612286Y-117085378D01*
X201215668Y-116920687D01*
X200786216Y-116920313D01*
X200389311Y-117084311D01*
X200085378Y-117387714D01*
X199920687Y-117784332D01*
X199920313Y-118213784D01*
X200084311Y-118610689D01*
X200387714Y-118914622D01*
X200784332Y-119079313D01*
X201213784Y-119079687D01*
X201610689Y-118915689D01*
X201741606Y-118785000D01*
X205258318Y-118785000D01*
X205387714Y-118914622D01*
X205784332Y-119079313D01*
X206213784Y-119079687D01*
X206610689Y-118915689D01*
X206914622Y-118612286D01*
X207079313Y-118215668D01*
X207079687Y-117786216D01*
X207079687Y-126950168D01*
X206949670Y-126755585D01*
X206463489Y-126430729D01*
X205890000Y-126316655D01*
X205316511Y-126430729D01*
X204830330Y-126755585D01*
X204620000Y-127070365D01*
X204409670Y-126755585D01*
X203923489Y-126430729D01*
X203350000Y-126316655D01*
X202776511Y-126430729D01*
X202290330Y-126755585D01*
X202080000Y-127070365D01*
X201869670Y-126755585D01*
X201383489Y-126430729D01*
X200810000Y-126316655D01*
X200236511Y-126430729D01*
X199750330Y-126755585D01*
X199540000Y-127070365D01*
X199329670Y-126755585D01*
X198843489Y-126430729D01*
X198270000Y-126316655D01*
X197696511Y-126430729D01*
X197210330Y-126755585D01*
X197000000Y-127070365D01*
X196789670Y-126755585D01*
X196303489Y-126430729D01*
X195730000Y-126316655D01*
X195156511Y-126430729D01*
X194670330Y-126755585D01*
X194460000Y-127070365D01*
X194249670Y-126755585D01*
X193763489Y-126430729D01*
X193190000Y-126316655D01*
X192616511Y-126430729D01*
X192130330Y-126755585D01*
X191920000Y-127070365D01*
X191709670Y-126755585D01*
X191223489Y-126430729D01*
X190650000Y-126316655D01*
X190076511Y-126430729D01*
X189590330Y-126755585D01*
X189380000Y-127070365D01*
X189169670Y-126755585D01*
X188683489Y-126430729D01*
X188110000Y-126316655D01*
X187536511Y-126430729D01*
X187050330Y-126755585D01*
X186840000Y-127070365D01*
X186629670Y-126755585D01*
X186143489Y-126430729D01*
X185570000Y-126316655D01*
X184996511Y-126430729D01*
X184510330Y-126755585D01*
X184300000Y-127070365D01*
X184089670Y-126755585D01*
X183603489Y-126430729D01*
X183079687Y-126326538D01*
X183079687Y-122786216D01*
X182915689Y-122389311D01*
X182785000Y-122258393D01*
X182785000Y-120741681D01*
X182914622Y-120612286D01*
X183079313Y-120215668D01*
X183079687Y-119786216D01*
X182915689Y-119389311D01*
X182612286Y-119085378D01*
X182215668Y-118920687D01*
X181786216Y-118920313D01*
X181389311Y-119084311D01*
X181085378Y-119387714D01*
X180920687Y-119784332D01*
X180920313Y-120213784D01*
X181084311Y-120610689D01*
X181215000Y-120741606D01*
X181215000Y-122258318D01*
X181085378Y-122387714D01*
X180920687Y-122784332D01*
X180920313Y-123213784D01*
X181084311Y-123610689D01*
X181387714Y-123914622D01*
X181784332Y-124079313D01*
X182213784Y-124079687D01*
X182610689Y-123915689D01*
X182914622Y-123612286D01*
X183079313Y-123215668D01*
X183079687Y-122786216D01*
X183079687Y-126326538D01*
X183030000Y-126316655D01*
X182456511Y-126430729D01*
X181970330Y-126755585D01*
X181760000Y-127070365D01*
X181549670Y-126755585D01*
X181063489Y-126430729D01*
X180490000Y-126316655D01*
X179916511Y-126430729D01*
X179430330Y-126755585D01*
X179220000Y-127070365D01*
X179009670Y-126755585D01*
X178523489Y-126430729D01*
X177950000Y-126316655D01*
X177376511Y-126430729D01*
X176890330Y-126755585D01*
X176680000Y-127070365D01*
X176469670Y-126755585D01*
X175983489Y-126430729D01*
X175410000Y-126316655D01*
X174836511Y-126430729D01*
X174350330Y-126755585D01*
X174140000Y-127070365D01*
X173929670Y-126755585D01*
X173443489Y-126430729D01*
X172870000Y-126316655D01*
X172296511Y-126430729D01*
X171810330Y-126755585D01*
X171795499Y-126777780D01*
X171731927Y-126624302D01*
X171553299Y-126445673D01*
X171319910Y-126349000D01*
X171067291Y-126349000D01*
X169340091Y-126349000D01*
X169106702Y-126445673D01*
X168928073Y-126624301D01*
X168831400Y-126857690D01*
X168831400Y-127110309D01*
X168831400Y-128448752D01*
X168508000Y-128835040D01*
X168508000Y-133222000D01*
X172900490Y-133222000D01*
X174046411Y-132258010D01*
X173022849Y-130056197D01*
X172546955Y-129619087D01*
X172870000Y-129683345D01*
X173443489Y-129569271D01*
X173929670Y-129244415D01*
X174140000Y-128929634D01*
X174350330Y-129244415D01*
X174836511Y-129569271D01*
X175410000Y-129683345D01*
X175983489Y-129569271D01*
X176469670Y-129244415D01*
X176680000Y-128929634D01*
X176890330Y-129244415D01*
X177376511Y-129569271D01*
X177950000Y-129683345D01*
X178523489Y-129569271D01*
X179009670Y-129244415D01*
X179220000Y-128929634D01*
X179430330Y-129244415D01*
X179916511Y-129569271D01*
X180490000Y-129683345D01*
X181063489Y-129569271D01*
X181549670Y-129244415D01*
X181760000Y-128929634D01*
X181970330Y-129244415D01*
X182456511Y-129569271D01*
X183030000Y-129683345D01*
X183603489Y-129569271D01*
X184089670Y-129244415D01*
X184300000Y-128929634D01*
X184510330Y-129244415D01*
X184996511Y-129569271D01*
X185570000Y-129683345D01*
X186143489Y-129569271D01*
X186629670Y-129244415D01*
X186840000Y-128929634D01*
X187050330Y-129244415D01*
X187536511Y-129569271D01*
X188110000Y-129683345D01*
X188683489Y-129569271D01*
X189169670Y-129244415D01*
X189380000Y-128929634D01*
X189590330Y-129244415D01*
X190076511Y-129569271D01*
X190650000Y-129683345D01*
X191223489Y-129569271D01*
X191709670Y-129244415D01*
X191920000Y-128929634D01*
X192130330Y-129244415D01*
X192616511Y-129569271D01*
X193190000Y-129683345D01*
X193763489Y-129569271D01*
X194249670Y-129244415D01*
X194460000Y-128929634D01*
X194670330Y-129244415D01*
X195156511Y-129569271D01*
X195730000Y-129683345D01*
X196303489Y-129569271D01*
X196789670Y-129244415D01*
X197000000Y-128929634D01*
X197210330Y-129244415D01*
X197696511Y-129569271D01*
X198270000Y-129683345D01*
X198843489Y-129569271D01*
X199329670Y-129244415D01*
X199540000Y-128929634D01*
X199750330Y-129244415D01*
X200236511Y-129569271D01*
X200810000Y-129683345D01*
X201383489Y-129569271D01*
X201869670Y-129244415D01*
X202080000Y-128929634D01*
X202290330Y-129244415D01*
X202776511Y-129569271D01*
X203350000Y-129683345D01*
X203923489Y-129569271D01*
X204409670Y-129244415D01*
X204620000Y-128929634D01*
X204830330Y-129244415D01*
X205316511Y-129569271D01*
X205890000Y-129683345D01*
X206463489Y-129569271D01*
X206949670Y-129244415D01*
X207160000Y-128929634D01*
X207370330Y-129244415D01*
X207856511Y-129569271D01*
X208430000Y-129683345D01*
X209003489Y-129569271D01*
X209489670Y-129244415D01*
X209700000Y-128929634D01*
X209910330Y-129244415D01*
X210396511Y-129569271D01*
X210970000Y-129683345D01*
X211543489Y-129569271D01*
X212029670Y-129244415D01*
X212240000Y-128929634D01*
X212450330Y-129244415D01*
X212936511Y-129569271D01*
X213510000Y-129683345D01*
X214083489Y-129569271D01*
X214569670Y-129244415D01*
X214780000Y-128929634D01*
X214990330Y-129244415D01*
X215476511Y-129569271D01*
X216050000Y-129683345D01*
X216623489Y-129569271D01*
X217109670Y-129244415D01*
X217320000Y-128929634D01*
X217530330Y-129244415D01*
X218016511Y-129569271D01*
X218590000Y-129683345D01*
X219163489Y-129569271D01*
X219649670Y-129244415D01*
X219860000Y-128929634D01*
X220070330Y-129244415D01*
X220556511Y-129569271D01*
X221130000Y-129683345D01*
X221703489Y-129569271D01*
X222189670Y-129244415D01*
X222400000Y-128929634D01*
X222610330Y-129244415D01*
X223096511Y-129569271D01*
X223670000Y-129683345D01*
X224243489Y-129569271D01*
X224729670Y-129244415D01*
X224873000Y-129029906D01*
X224873000Y-140873000D01*
X224873000Y-140873000D01*
G37*
X224873000Y-140873000D02*
X174046411Y-140873000D01*
X174046411Y-135201990D01*
X172900490Y-134238000D01*
X168508000Y-134238000D01*
X168508000Y-134619000D01*
X167492000Y-134619000D01*
X167492000Y-134238000D01*
X167492000Y-133222000D01*
X167492000Y-128835040D01*
X166528012Y-127683597D01*
X164765396Y-128413688D01*
X162977151Y-130056197D01*
X161953589Y-132258010D01*
X163099510Y-133222000D01*
X167492000Y-133222000D01*
X167492000Y-134238000D01*
X163099510Y-134238000D01*
X161953589Y-135201990D01*
X162977151Y-137403803D01*
X164765396Y-139046312D01*
X166528012Y-139776403D01*
X167492000Y-138624960D01*
X167492000Y-137921000D01*
X168508000Y-137921000D01*
X168508000Y-138624960D01*
X169471988Y-139776403D01*
X171234604Y-139046312D01*
X173022849Y-137403803D01*
X174046411Y-135201990D01*
X174046411Y-140873000D01*
X158038600Y-140873000D01*
X158038600Y-122142310D01*
X158038600Y-121889691D01*
X158038600Y-119857691D01*
X157941927Y-119624302D01*
X157763299Y-119445673D01*
X157530600Y-119349285D01*
X157530600Y-118586998D01*
X156965000Y-118586998D01*
X156437541Y-117380301D01*
X154731770Y-115739411D01*
X153917697Y-115394172D01*
X153915689Y-115389311D01*
X153612286Y-115085378D01*
X153215668Y-114920687D01*
X152786216Y-114920313D01*
X152389311Y-115084311D01*
X152085378Y-115387714D01*
X151920687Y-115784332D01*
X151920497Y-116001872D01*
X151028200Y-116894170D01*
X151028200Y-116098339D01*
X150086270Y-114934474D01*
X148188230Y-115739411D01*
X146482459Y-117380301D01*
X145534474Y-119549056D01*
X146706040Y-120492000D01*
X151028200Y-120492000D01*
X151028200Y-119079525D01*
X151213784Y-119079687D01*
X151610689Y-118915689D01*
X151891800Y-118635068D01*
X151891800Y-120492000D01*
X152323600Y-120492000D01*
X152323600Y-121508000D01*
X151891800Y-121508000D01*
X151891800Y-125901661D01*
X152833730Y-127065526D01*
X154731770Y-126260589D01*
X156437541Y-124619699D01*
X156965000Y-123413002D01*
X157530600Y-123413002D01*
X157530600Y-122650713D01*
X157763298Y-122554327D01*
X157941927Y-122375699D01*
X158038600Y-122142310D01*
X158038600Y-140873000D01*
X151079687Y-140873000D01*
X151079687Y-133786216D01*
X151028200Y-133661608D01*
X151028200Y-125901661D01*
X151028200Y-121508000D01*
X146706040Y-121508000D01*
X145534474Y-122450944D01*
X146482459Y-124619699D01*
X148188230Y-126260589D01*
X150086270Y-127065526D01*
X151028200Y-125901661D01*
X151028200Y-133661608D01*
X150915689Y-133389311D01*
X150612286Y-133085378D01*
X150215668Y-132920687D01*
X149786216Y-132920313D01*
X149389311Y-133084311D01*
X149085378Y-133387714D01*
X148920687Y-133784332D01*
X148920313Y-134213784D01*
X149084311Y-134610689D01*
X149181646Y-134708195D01*
X147969369Y-135920472D01*
X147786216Y-135920313D01*
X147389311Y-136084311D01*
X147085378Y-136387714D01*
X146920687Y-136784332D01*
X146920313Y-137213784D01*
X147084311Y-137610689D01*
X147387714Y-137914622D01*
X147784332Y-138079313D01*
X148213784Y-138079687D01*
X148610689Y-137915689D01*
X148914622Y-137612286D01*
X149079313Y-137215668D01*
X149079474Y-137030683D01*
X150555079Y-135555079D01*
X150725245Y-135300407D01*
X150725245Y-135300406D01*
X150785000Y-135000000D01*
X150785000Y-134741681D01*
X150914622Y-134612286D01*
X151079313Y-134215668D01*
X151079687Y-133786216D01*
X151079687Y-140873000D01*
X145046411Y-140873000D01*
X145046411Y-121741990D01*
X143900490Y-120778000D01*
X139508000Y-120778000D01*
X139508000Y-125164960D01*
X140471988Y-126316403D01*
X142234604Y-125586312D01*
X144022849Y-123943803D01*
X145046411Y-121741990D01*
X145046411Y-140873000D01*
X138127000Y-140873000D01*
X138127000Y-125600937D01*
X138492000Y-125164960D01*
X138492000Y-120778000D01*
X138127000Y-120778000D01*
X138127000Y-119762000D01*
X138492000Y-119762000D01*
X138492000Y-119381000D01*
X139508000Y-119381000D01*
X139508000Y-119762000D01*
X143900490Y-119762000D01*
X145046411Y-118798010D01*
X144022849Y-116596197D01*
X142234604Y-114953688D01*
X140471988Y-114223597D01*
X139508000Y-115375040D01*
X139508000Y-116079000D01*
X138492000Y-116079000D01*
X138492000Y-115375040D01*
X138127000Y-114939062D01*
X138127000Y-98127000D01*
X224873000Y-98127000D01*
X224873000Y-112137264D01*
X224659910Y-112049000D01*
X224407291Y-112049000D01*
X222680091Y-112049000D01*
X222446702Y-112145673D01*
X222268073Y-112324301D01*
X222204499Y-112477779D01*
X222189670Y-112455585D01*
X221703489Y-112130729D01*
X221130000Y-112016655D01*
X220556511Y-112130729D01*
X220070330Y-112455585D01*
X219860000Y-112770365D01*
X219649670Y-112455585D01*
X219163489Y-112130729D01*
X218590000Y-112016655D01*
X218016511Y-112130729D01*
X217530330Y-112455585D01*
X217320000Y-112770365D01*
X217109670Y-112455585D01*
X216623489Y-112130729D01*
X216050000Y-112016655D01*
X215476511Y-112130729D01*
X214990330Y-112455585D01*
X214780000Y-112770365D01*
X214569670Y-112455585D01*
X214083489Y-112130729D01*
X213510000Y-112016655D01*
X212936511Y-112130729D01*
X212450330Y-112455585D01*
X212240000Y-112770365D01*
X212029670Y-112455585D01*
X211543489Y-112130729D01*
X210970000Y-112016655D01*
X210396511Y-112130729D01*
X209910330Y-112455585D01*
X209700000Y-112770365D01*
X209489670Y-112455585D01*
X209003489Y-112130729D01*
X208430000Y-112016655D01*
X207856511Y-112130729D01*
X207370330Y-112455585D01*
X207160000Y-112770365D01*
X206949670Y-112455585D01*
X206463489Y-112130729D01*
X205890000Y-112016655D01*
X205316511Y-112130729D01*
X204830330Y-112455585D01*
X204620000Y-112770365D01*
X204409670Y-112455585D01*
X203923489Y-112130729D01*
X203350000Y-112016655D01*
X202776511Y-112130729D01*
X202290330Y-112455585D01*
X202080000Y-112770365D01*
X201869670Y-112455585D01*
X201383489Y-112130729D01*
X200810000Y-112016655D01*
X200236511Y-112130729D01*
X199750330Y-112455585D01*
X199540000Y-112770365D01*
X199329670Y-112455585D01*
X198843489Y-112130729D01*
X198270000Y-112016655D01*
X197696511Y-112130729D01*
X197210330Y-112455585D01*
X197000000Y-112770365D01*
X196789670Y-112455585D01*
X196303489Y-112130729D01*
X195730000Y-112016655D01*
X195156511Y-112130729D01*
X194670330Y-112455585D01*
X194460000Y-112770365D01*
X194249670Y-112455585D01*
X193763489Y-112130729D01*
X193190000Y-112016655D01*
X192616511Y-112130729D01*
X192130330Y-112455585D01*
X191920000Y-112770365D01*
X191709670Y-112455585D01*
X191223489Y-112130729D01*
X190650000Y-112016655D01*
X190076511Y-112130729D01*
X189590330Y-112455585D01*
X189380000Y-112770365D01*
X189169670Y-112455585D01*
X188683489Y-112130729D01*
X188110000Y-112016655D01*
X187536511Y-112130729D01*
X187050330Y-112455585D01*
X186840000Y-112770365D01*
X186629670Y-112455585D01*
X186143489Y-112130729D01*
X185570000Y-112016655D01*
X184996511Y-112130729D01*
X184510330Y-112455585D01*
X184300000Y-112770365D01*
X184089670Y-112455585D01*
X183603489Y-112130729D01*
X183030000Y-112016655D01*
X182456511Y-112130729D01*
X181970330Y-112455585D01*
X181760000Y-112770365D01*
X181549670Y-112455585D01*
X181063489Y-112130729D01*
X180490000Y-112016655D01*
X179916511Y-112130729D01*
X179430330Y-112455585D01*
X179220000Y-112770365D01*
X179009670Y-112455585D01*
X178523489Y-112130729D01*
X177950000Y-112016655D01*
X177376511Y-112130729D01*
X176890330Y-112455585D01*
X176680000Y-112770365D01*
X176469670Y-112455585D01*
X175983489Y-112130729D01*
X175410000Y-112016655D01*
X174836511Y-112130729D01*
X174350330Y-112455585D01*
X174140000Y-112770365D01*
X173929670Y-112455585D01*
X173443489Y-112130729D01*
X172870000Y-112016655D01*
X172296511Y-112130729D01*
X171810330Y-112455585D01*
X171600000Y-112770365D01*
X171389670Y-112455585D01*
X170903489Y-112130729D01*
X170330000Y-112016655D01*
X169756511Y-112130729D01*
X169270330Y-112455585D01*
X168945474Y-112941766D01*
X168831400Y-113515255D01*
X168831400Y-113884745D01*
X168945474Y-114458234D01*
X169270330Y-114944415D01*
X169756511Y-115269271D01*
X170330000Y-115383345D01*
X170903489Y-115269271D01*
X171389670Y-114944415D01*
X171600000Y-114629634D01*
X171810330Y-114944415D01*
X172296511Y-115269271D01*
X172870000Y-115383345D01*
X173443489Y-115269271D01*
X173929670Y-114944415D01*
X174140000Y-114629634D01*
X174350330Y-114944415D01*
X174836511Y-115269271D01*
X175410000Y-115383345D01*
X175983489Y-115269271D01*
X176469670Y-114944415D01*
X176680000Y-114629634D01*
X176890330Y-114944415D01*
X177376511Y-115269271D01*
X177950000Y-115383345D01*
X178523489Y-115269271D01*
X179009670Y-114944415D01*
X179220000Y-114629634D01*
X179430330Y-114944415D01*
X179916511Y-115269271D01*
X180490000Y-115383345D01*
X181063489Y-115269271D01*
X181549670Y-114944415D01*
X181760000Y-114629634D01*
X181970330Y-114944415D01*
X182456511Y-115269271D01*
X183030000Y-115383345D01*
X183603489Y-115269271D01*
X184089670Y-114944415D01*
X184300000Y-114629634D01*
X184510330Y-114944415D01*
X184996511Y-115269271D01*
X185570000Y-115383345D01*
X186143489Y-115269271D01*
X186629670Y-114944415D01*
X186840000Y-114629634D01*
X187050330Y-114944415D01*
X187536511Y-115269271D01*
X188110000Y-115383345D01*
X188683489Y-115269271D01*
X189169670Y-114944415D01*
X189380000Y-114629634D01*
X189590330Y-114944415D01*
X190076511Y-115269271D01*
X190650000Y-115383345D01*
X191223489Y-115269271D01*
X191709670Y-114944415D01*
X191920000Y-114629634D01*
X192130330Y-114944415D01*
X192616511Y-115269271D01*
X193190000Y-115383345D01*
X193763489Y-115269271D01*
X194249670Y-114944415D01*
X194460000Y-114629634D01*
X194670330Y-114944415D01*
X195156511Y-115269271D01*
X195730000Y-115383345D01*
X196303489Y-115269271D01*
X196789670Y-114944415D01*
X197000000Y-114629634D01*
X197210330Y-114944415D01*
X197696511Y-115269271D01*
X198270000Y-115383345D01*
X198843489Y-115269271D01*
X199329670Y-114944415D01*
X199540000Y-114629634D01*
X199750330Y-114944415D01*
X200236511Y-115269271D01*
X200810000Y-115383345D01*
X201383489Y-115269271D01*
X201869670Y-114944415D01*
X202080000Y-114629634D01*
X202290330Y-114944415D01*
X202776511Y-115269271D01*
X203350000Y-115383345D01*
X203923489Y-115269271D01*
X204409670Y-114944415D01*
X204620000Y-114629634D01*
X204830330Y-114944415D01*
X205316511Y-115269271D01*
X205890000Y-115383345D01*
X206463489Y-115269271D01*
X206949670Y-114944415D01*
X207160000Y-114629634D01*
X207370330Y-114944415D01*
X207856511Y-115269271D01*
X208430000Y-115383345D01*
X209003489Y-115269271D01*
X209489670Y-114944415D01*
X209700000Y-114629634D01*
X209910330Y-114944415D01*
X210396511Y-115269271D01*
X210970000Y-115383345D01*
X211543489Y-115269271D01*
X212029670Y-114944415D01*
X212240000Y-114629634D01*
X212450330Y-114944415D01*
X212936511Y-115269271D01*
X213510000Y-115383345D01*
X214083489Y-115269271D01*
X214569670Y-114944415D01*
X214780000Y-114629634D01*
X214990330Y-114944415D01*
X215476511Y-115269271D01*
X216050000Y-115383345D01*
X216623489Y-115269271D01*
X217109670Y-114944415D01*
X217320000Y-114629634D01*
X217530330Y-114944415D01*
X218016511Y-115269271D01*
X218590000Y-115383345D01*
X219163489Y-115269271D01*
X219649670Y-114944415D01*
X219860000Y-114629634D01*
X220070330Y-114944415D01*
X220556511Y-115269271D01*
X221130000Y-115383345D01*
X221703489Y-115269271D01*
X222189670Y-114944415D01*
X222204500Y-114922219D01*
X222268073Y-115075698D01*
X222446701Y-115254327D01*
X222680090Y-115351000D01*
X222932709Y-115351000D01*
X224659909Y-115351000D01*
X224873000Y-115262734D01*
X224873000Y-126970093D01*
X224729670Y-126755585D01*
X224243489Y-126430729D01*
X223670000Y-126316655D01*
X223096511Y-126430729D01*
X222610330Y-126755585D01*
X222400000Y-127070365D01*
X222189670Y-126755585D01*
X221703489Y-126430729D01*
X221130000Y-126316655D01*
X220556511Y-126430729D01*
X220070330Y-126755585D01*
X219860000Y-127070365D01*
X219649670Y-126755585D01*
X219163489Y-126430729D01*
X218590000Y-126316655D01*
X218016511Y-126430729D01*
X217530330Y-126755585D01*
X217320000Y-127070365D01*
X217109670Y-126755585D01*
X216623489Y-126430729D01*
X216050000Y-126316655D01*
X215476511Y-126430729D01*
X214990330Y-126755585D01*
X214780000Y-127070365D01*
X214569670Y-126755585D01*
X214083489Y-126430729D01*
X213510000Y-126316655D01*
X212936511Y-126430729D01*
X212450330Y-126755585D01*
X212240000Y-127070365D01*
X212029670Y-126755585D01*
X211543489Y-126430729D01*
X210970000Y-126316655D01*
X210396511Y-126430729D01*
X209910330Y-126755585D01*
X209700000Y-127070365D01*
X209489670Y-126755585D01*
X209003489Y-126430729D01*
X208430000Y-126316655D01*
X207856511Y-126430729D01*
X207370330Y-126755585D01*
X207160000Y-127070365D01*
X207079687Y-126950168D01*
X207079687Y-117786216D01*
X206915689Y-117389311D01*
X206612286Y-117085378D01*
X206215668Y-116920687D01*
X205786216Y-116920313D01*
X205389311Y-117084311D01*
X205258393Y-117215000D01*
X201741681Y-117215000D01*
X201612286Y-117085378D01*
X201215668Y-116920687D01*
X200786216Y-116920313D01*
X200389311Y-117084311D01*
X200085378Y-117387714D01*
X199920687Y-117784332D01*
X199920313Y-118213784D01*
X200084311Y-118610689D01*
X200387714Y-118914622D01*
X200784332Y-119079313D01*
X201213784Y-119079687D01*
X201610689Y-118915689D01*
X201741606Y-118785000D01*
X205258318Y-118785000D01*
X205387714Y-118914622D01*
X205784332Y-119079313D01*
X206213784Y-119079687D01*
X206610689Y-118915689D01*
X206914622Y-118612286D01*
X207079313Y-118215668D01*
X207079687Y-117786216D01*
X207079687Y-126950168D01*
X206949670Y-126755585D01*
X206463489Y-126430729D01*
X205890000Y-126316655D01*
X205316511Y-126430729D01*
X204830330Y-126755585D01*
X204620000Y-127070365D01*
X204409670Y-126755585D01*
X203923489Y-126430729D01*
X203350000Y-126316655D01*
X202776511Y-126430729D01*
X202290330Y-126755585D01*
X202080000Y-127070365D01*
X201869670Y-126755585D01*
X201383489Y-126430729D01*
X200810000Y-126316655D01*
X200236511Y-126430729D01*
X199750330Y-126755585D01*
X199540000Y-127070365D01*
X199329670Y-126755585D01*
X198843489Y-126430729D01*
X198270000Y-126316655D01*
X197696511Y-126430729D01*
X197210330Y-126755585D01*
X197000000Y-127070365D01*
X196789670Y-126755585D01*
X196303489Y-126430729D01*
X195730000Y-126316655D01*
X195156511Y-126430729D01*
X194670330Y-126755585D01*
X194460000Y-127070365D01*
X194249670Y-126755585D01*
X193763489Y-126430729D01*
X193190000Y-126316655D01*
X192616511Y-126430729D01*
X192130330Y-126755585D01*
X191920000Y-127070365D01*
X191709670Y-126755585D01*
X191223489Y-126430729D01*
X190650000Y-126316655D01*
X190076511Y-126430729D01*
X189590330Y-126755585D01*
X189380000Y-127070365D01*
X189169670Y-126755585D01*
X188683489Y-126430729D01*
X188110000Y-126316655D01*
X187536511Y-126430729D01*
X187050330Y-126755585D01*
X186840000Y-127070365D01*
X186629670Y-126755585D01*
X186143489Y-126430729D01*
X185570000Y-126316655D01*
X184996511Y-126430729D01*
X184510330Y-126755585D01*
X184300000Y-127070365D01*
X184089670Y-126755585D01*
X183603489Y-126430729D01*
X183079687Y-126326538D01*
X183079687Y-122786216D01*
X182915689Y-122389311D01*
X182785000Y-122258393D01*
X182785000Y-120741681D01*
X182914622Y-120612286D01*
X183079313Y-120215668D01*
X183079687Y-119786216D01*
X182915689Y-119389311D01*
X182612286Y-119085378D01*
X182215668Y-118920687D01*
X181786216Y-118920313D01*
X181389311Y-119084311D01*
X181085378Y-119387714D01*
X180920687Y-119784332D01*
X180920313Y-120213784D01*
X181084311Y-120610689D01*
X181215000Y-120741606D01*
X181215000Y-122258318D01*
X181085378Y-122387714D01*
X180920687Y-122784332D01*
X180920313Y-123213784D01*
X181084311Y-123610689D01*
X181387714Y-123914622D01*
X181784332Y-124079313D01*
X182213784Y-124079687D01*
X182610689Y-123915689D01*
X182914622Y-123612286D01*
X183079313Y-123215668D01*
X183079687Y-122786216D01*
X183079687Y-126326538D01*
X183030000Y-126316655D01*
X182456511Y-126430729D01*
X181970330Y-126755585D01*
X181760000Y-127070365D01*
X181549670Y-126755585D01*
X181063489Y-126430729D01*
X180490000Y-126316655D01*
X179916511Y-126430729D01*
X179430330Y-126755585D01*
X179220000Y-127070365D01*
X179009670Y-126755585D01*
X178523489Y-126430729D01*
X177950000Y-126316655D01*
X177376511Y-126430729D01*
X176890330Y-126755585D01*
X176680000Y-127070365D01*
X176469670Y-126755585D01*
X175983489Y-126430729D01*
X175410000Y-126316655D01*
X174836511Y-126430729D01*
X174350330Y-126755585D01*
X174140000Y-127070365D01*
X173929670Y-126755585D01*
X173443489Y-126430729D01*
X172870000Y-126316655D01*
X172296511Y-126430729D01*
X171810330Y-126755585D01*
X171795499Y-126777780D01*
X171731927Y-126624302D01*
X171553299Y-126445673D01*
X171319910Y-126349000D01*
X171067291Y-126349000D01*
X169340091Y-126349000D01*
X169106702Y-126445673D01*
X168928073Y-126624301D01*
X168831400Y-126857690D01*
X168831400Y-127110309D01*
X168831400Y-128448752D01*
X168508000Y-128835040D01*
X168508000Y-133222000D01*
X172900490Y-133222000D01*
X174046411Y-132258010D01*
X173022849Y-130056197D01*
X172546955Y-129619087D01*
X172870000Y-129683345D01*
X173443489Y-129569271D01*
X173929670Y-129244415D01*
X174140000Y-128929634D01*
X174350330Y-129244415D01*
X174836511Y-129569271D01*
X175410000Y-129683345D01*
X175983489Y-129569271D01*
X176469670Y-129244415D01*
X176680000Y-128929634D01*
X176890330Y-129244415D01*
X177376511Y-129569271D01*
X177950000Y-129683345D01*
X178523489Y-129569271D01*
X179009670Y-129244415D01*
X179220000Y-128929634D01*
X179430330Y-129244415D01*
X179916511Y-129569271D01*
X180490000Y-129683345D01*
X181063489Y-129569271D01*
X181549670Y-129244415D01*
X181760000Y-128929634D01*
X181970330Y-129244415D01*
X182456511Y-129569271D01*
X183030000Y-129683345D01*
X183603489Y-129569271D01*
X184089670Y-129244415D01*
X184300000Y-128929634D01*
X184510330Y-129244415D01*
X184996511Y-129569271D01*
X185570000Y-129683345D01*
X186143489Y-129569271D01*
X186629670Y-129244415D01*
X186840000Y-128929634D01*
X187050330Y-129244415D01*
X187536511Y-129569271D01*
X188110000Y-129683345D01*
X188683489Y-129569271D01*
X189169670Y-129244415D01*
X189380000Y-128929634D01*
X189590330Y-129244415D01*
X190076511Y-129569271D01*
X190650000Y-129683345D01*
X191223489Y-129569271D01*
X191709670Y-129244415D01*
X191920000Y-128929634D01*
X192130330Y-129244415D01*
X192616511Y-129569271D01*
X193190000Y-129683345D01*
X193763489Y-129569271D01*
X194249670Y-129244415D01*
X194460000Y-128929634D01*
X194670330Y-129244415D01*
X195156511Y-129569271D01*
X195730000Y-129683345D01*
X196303489Y-129569271D01*
X196789670Y-129244415D01*
X197000000Y-128929634D01*
X197210330Y-129244415D01*
X197696511Y-129569271D01*
X198270000Y-129683345D01*
X198843489Y-129569271D01*
X199329670Y-129244415D01*
X199540000Y-128929634D01*
X199750330Y-129244415D01*
X200236511Y-129569271D01*
X200810000Y-129683345D01*
X201383489Y-129569271D01*
X201869670Y-129244415D01*
X202080000Y-128929634D01*
X202290330Y-129244415D01*
X202776511Y-129569271D01*
X203350000Y-129683345D01*
X203923489Y-129569271D01*
X204409670Y-129244415D01*
X204620000Y-128929634D01*
X204830330Y-129244415D01*
X205316511Y-129569271D01*
X205890000Y-129683345D01*
X206463489Y-129569271D01*
X206949670Y-129244415D01*
X207160000Y-128929634D01*
X207370330Y-129244415D01*
X207856511Y-129569271D01*
X208430000Y-129683345D01*
X209003489Y-129569271D01*
X209489670Y-129244415D01*
X209700000Y-128929634D01*
X209910330Y-129244415D01*
X210396511Y-129569271D01*
X210970000Y-129683345D01*
X211543489Y-129569271D01*
X212029670Y-129244415D01*
X212240000Y-128929634D01*
X212450330Y-129244415D01*
X212936511Y-129569271D01*
X213510000Y-129683345D01*
X214083489Y-129569271D01*
X214569670Y-129244415D01*
X214780000Y-128929634D01*
X214990330Y-129244415D01*
X215476511Y-129569271D01*
X216050000Y-129683345D01*
X216623489Y-129569271D01*
X217109670Y-129244415D01*
X217320000Y-128929634D01*
X217530330Y-129244415D01*
X218016511Y-129569271D01*
X218590000Y-129683345D01*
X219163489Y-129569271D01*
X219649670Y-129244415D01*
X219860000Y-128929634D01*
X220070330Y-129244415D01*
X220556511Y-129569271D01*
X221130000Y-129683345D01*
X221703489Y-129569271D01*
X222189670Y-129244415D01*
X222400000Y-128929634D01*
X222610330Y-129244415D01*
X223096511Y-129569271D01*
X223670000Y-129683345D01*
X224243489Y-129569271D01*
X224729670Y-129244415D01*
X224873000Y-129029906D01*
X224873000Y-140873000D01*
M02*
